<?xml version="1.0" encoding="utf-8"?>
<!-- Generator: Adobe Illustrator 20.0.0, SVG Export Plug-In . SVG Version: 6.00 Build 0)  -->
<svg version="1.1" id="Layer_1" xmlns="http://www.w3.org/2000/svg" xmlns:xlink="http://www.w3.org/1999/xlink" x="0px" y="0px" width="600px" height="186.596px"
	 viewBox="0 0 600 186.6" style="enable-background:new 0 0 600 186.6;" xml:space="preserve">
<style type="text/css">
	.st0{fill:#FFFFFF;}
</style>
<g>
	<path class="st0" d="M147.3,143.1c0,3.2-0.6,6-1.7,8.5c-1.1,2.4-2.7,4.3-4.8,5.6s-4.4,2-7.2,2c-4.1,0-7.4-1.5-9.9-4.4
		c-2.5-2.9-3.8-6.9-3.8-11.8v-3.6c0-3.2,0.6-6,1.7-8.5c1.1-2.5,2.7-4.3,4.8-5.7c2.1-1.3,4.4-2,7.1-2c2.7,0,5.1,0.6,7.1,1.9
		c2.1,1.3,3.6,3.1,4.8,5.5c1.1,2.4,1.7,5.1,1.8,8.2V143.1z M144.4,139.3c0-4.2-1-7.5-2.9-9.9c-1.9-2.4-4.5-3.6-7.8-3.6
		c-3.2,0-5.8,1.2-7.8,3.6c-1.9,2.4-2.9,5.7-2.9,10v3.6c0,4.1,1,7.4,2.9,9.9s4.5,3.6,7.8,3.6c3.3,0,6-1.2,7.8-3.6
		c1.9-2.4,2.8-5.7,2.8-10V139.3z M163.7,156.7c2,0,3.7-0.6,5-1.7s2.1-2.6,2.2-4.4h2.8c-0.1,1.6-0.6,3-1.5,4.3s-2.1,2.3-3.6,3.1
		c-1.5,0.7-3.1,1.1-4.9,1.1c-3.4,0-6.1-1.2-8.1-3.6c-2-2.4-3-5.6-3-9.6v-0.9c0-2.6,0.4-4.8,1.3-6.8c0.9-2,2.2-3.5,3.9-4.6
		s3.6-1.6,5.9-1.6c2.8,0,5.2,0.8,7,2.5c1.8,1.7,2.8,3.9,3,6.7h-2.8c-0.1-2-0.9-3.7-2.2-4.9c-1.3-1.2-3-1.9-5.1-1.9
		c-2.6,0-4.6,0.9-6,2.8c-1.4,1.9-2.1,4.5-2.1,7.9v0.8c0,3.3,0.7,5.9,2.1,7.8C159.1,155.8,161.1,156.7,163.7,156.7z M183.9,126v6.6
		h5.4v2.4h-5.4v17.3c0,1.4,0.3,2.5,0.8,3.2c0.5,0.7,1.4,1.1,2.6,1.1c0.5,0,1.3-0.1,2.3-0.2l0.1,2.3c-0.8,0.3-1.8,0.4-3.1,0.4
		c-2,0-3.4-0.6-4.3-1.7c-0.9-1.1-1.3-2.8-1.3-5.1V135h-4.8v-2.4h4.8V126H183.9z M193.2,145.3c0-2.5,0.5-4.7,1.5-6.7s2.3-3.6,4.1-4.7
		s3.8-1.7,6-1.7c3.5,0,6.3,1.2,8.4,3.6s3.2,5.6,3.2,9.6v0.6c0,2.5-0.5,4.8-1.5,6.8c-1,2-2.3,3.6-4.1,4.6s-3.8,1.6-6,1.6
		c-3.4,0-6.2-1.2-8.4-3.6c-2.2-2.4-3.2-5.6-3.2-9.6V145.3z M196,146.1c0,3.1,0.8,5.7,2.4,7.6s3.7,3,6.3,3c2.6,0,4.7-1,6.3-3
		s2.4-4.6,2.4-7.9v-0.6c0-2-0.4-3.8-1.1-5.4c-0.7-1.6-1.8-2.9-3.1-3.8c-1.3-0.9-2.8-1.4-4.6-1.4c-2.6,0-4.6,1-6.3,3
		c-1.6,2-2.4,4.6-2.4,7.9V146.1z M243.2,145.9c0,4-0.9,7.3-2.7,9.6c-1.8,2.4-4.2,3.6-7.2,3.6c-3.6,0-6.4-1.3-8.2-4l-0.1,3.6h-2.7
		v-36.9h2.9v14.7c1.8-2.8,4.5-4.2,8.1-4.2c3.1,0,5.5,1.2,7.3,3.5s2.7,5.6,2.7,9.8V145.9z M240.3,145.4c0-3.4-0.7-6.1-2-7.9
		c-1.3-1.9-3.2-2.8-5.6-2.8c-1.8,0-3.4,0.5-4.7,1.4c-1.3,0.9-2.2,2.2-2.9,4v11.7c1.4,3.3,4,4.9,7.6,4.9c2.4,0,4.2-0.9,5.6-2.8
		C239.6,152,240.3,149.2,240.3,145.4z M259.6,159.1c-2.2,0-4.2-0.5-6-1.6s-3.2-2.6-4.2-4.5s-1.5-4.1-1.5-6.5v-1
		c0-2.5,0.5-4.7,1.5-6.7s2.3-3.6,4-4.7s3.6-1.7,5.6-1.7c3.2,0,5.7,1.1,7.5,3.2c1.8,2.2,2.8,5.1,2.8,8.8v1.6h-18.5v0.6
		c0,2.9,0.8,5.4,2.5,7.4c1.7,2,3.8,2.9,6.4,2.9c1.5,0,2.9-0.3,4.1-0.8c1.2-0.6,2.2-1.5,3.2-2.7l1.8,1.4
		C266.7,157.6,263.6,159.1,259.6,159.1z M259,134.7c-2.2,0-4,0.8-5.5,2.4s-2.4,3.7-2.7,6.4h15.6v-0.3c-0.1-2.5-0.8-4.5-2.1-6.1
		S261.2,134.7,259,134.7z M286.9,135.1c-0.6-0.1-1.3-0.2-1.9-0.2c-1.8,0-3.3,0.5-4.5,1.5c-1.2,1-2.1,2.5-2.7,4.4v17.8h-2.9v-26h2.8
		l0,4.1c1.5-3.1,4-4.6,7.3-4.6c0.8,0,1.4,0.1,1.9,0.3L286.9,135.1z M316.3,158.7h-2.9v-31.5l-9.5,3.5V128l11.9-4.4h0.5V158.7z
		 M336.6,139.6h3c1.6,0,3.1-0.3,4.3-0.9c1.2-0.6,2.2-1.4,2.8-2.4c0.6-1,1-2.2,1-3.5c0-2.2-0.6-4-1.9-5.3s-3.1-1.9-5.4-1.9
		c-2.2,0-4.1,0.7-5.5,2c-1.4,1.3-2.1,3.1-2.1,5.2h-2.9c0-1.8,0.5-3.5,1.4-5s2.2-2.7,3.8-3.5s3.4-1.2,5.4-1.2c3.2,0,5.7,0.9,7.5,2.6
		s2.7,4.1,2.7,7.1c0,1.7-0.5,3.2-1.6,4.6c-1.1,1.4-2.5,2.5-4.4,3.2c2.2,0.6,3.8,1.7,4.9,3.1c1.1,1.5,1.7,3.2,1.7,5.3
		c0,3-1,5.4-2.9,7.2s-4.6,2.7-7.8,2.7c-2.1,0-4-0.4-5.7-1.2s-3.1-2-4-3.5c-1-1.5-1.4-3.2-1.4-5.2h2.9c0,2.2,0.8,4,2.3,5.4
		c1.6,1.4,3.5,2.1,6,2.1c2.5,0,4.4-0.6,5.8-1.9c1.4-1.3,2.1-3.1,2.1-5.5c0-2.3-0.7-4.1-2.2-5.4c-1.5-1.2-3.7-1.8-6.6-1.8h-2.9V139.6
		z M357.3,165.2l-1.7-1.2c1.5-2,2.2-4,2.3-6.1v-3.7h2.8v3C360.7,160.5,359.5,163.2,357.3,165.2z M400.7,158.7h-21.9v-2.2l12-13.6
		c2-2.3,3.4-4.2,4.1-5.7s1.2-2.9,1.2-4.3c0-2.2-0.6-4-1.9-5.2c-1.3-1.3-3.1-1.9-5.4-1.9c-2.4,0-4.3,0.8-5.7,2.3
		c-1.4,1.5-2.2,3.5-2.2,5.9H378c0-2,0.4-3.8,1.3-5.4c0.9-1.6,2.2-2.9,3.8-3.8c1.6-0.9,3.5-1.4,5.6-1.4c3.2,0,5.7,0.8,7.5,2.5
		c1.8,1.7,2.7,4,2.7,6.9c0,1.6-0.5,3.4-1.5,5.4s-2.8,4.4-5.4,7.2l-9.7,11h18.4V158.7z M427.1,144.1c0,4.9-0.9,8.7-2.7,11.2
		c-1.8,2.6-4.5,3.8-8,3.8c-3.5,0-6.1-1.3-7.9-3.8c-1.8-2.5-2.8-6.1-2.8-10.9v-6.3c0-4.9,0.9-8.6,2.7-11.2c1.8-2.5,4.5-3.8,8-3.8
		c3.5,0,6.1,1.2,7.9,3.7c1.8,2.4,2.8,6,2.8,10.8V144.1z M424.2,137.8c0-4-0.7-7-2-9.1c-1.3-2-3.3-3.1-5.9-3.1c-2.6,0-4.5,1-5.9,3
		c-1.3,2-2,5-2,8.9v6.9c0,4,0.7,7,2,9.1c1.4,2.1,3.3,3.2,5.9,3.2c2.6,0,4.5-1,5.8-3.1c1.3-2.1,2-5.1,2-9.1V137.8z M446.7,158.7h-2.9
		v-31.5l-9.5,3.5V128l11.9-4.4h0.5V158.7z M482.1,125.4l-14.9,33.3h-3l14.8-32.5h-19.9v-2.4h23V125.4z M600,100.6H0v86h600V100.6z"
		/>
	<g>
		<path class="st0" d="M56.8,71.8h-2.5L10.4,8v63.7H7.8v-68h2.6l43.9,63.6V3.7h2.5V71.8z"/>
		<path class="st0" d="M89.7,67.8l0.3-0.9l17.5-45.7h2.8L87.7,80.5l-1.1,2.8c-2.4,5.9-6.4,8.8-12.1,8.8c-1.8,0-3.1-0.2-3.7-0.5
			l0-2.4c1,0.3,2.1,0.4,3.4,0.4c2.6,0,4.8-0.8,6.6-2.3c1.7-1.5,3.3-4,4.5-7.5l3.1-8.3L68.2,21.2h2.8L89.7,67.8z"/>
		<path class="st0" d="M129.8,44.4L129.8,44.4l-7.4,6.4v20.9h-2.5V0h2.5v48.1l5.9-5.6l23-21.3h3.6l-23.2,21.5l24.7,29h-3.3
			L129.8,44.4z"/>
		<path class="st0" d="M164.5,5.4c0-0.7,0.2-1.3,0.7-1.8c0.5-0.5,1.1-0.8,1.8-0.8s1.3,0.3,1.8,0.8s0.8,1.1,0.8,1.8s-0.3,1.3-0.8,1.8
			S167.7,8,167,8s-1.3-0.2-1.8-0.7C164.7,6.7,164.5,6.1,164.5,5.4z M168.3,71.8h-2.5V21.2h2.5V71.8z"/>
		<path class="st0" d="M190.5,7.6v13.6H202v2.5h-11.5v35.9c0,3.6,0.6,6.2,1.8,7.9c1.2,1.7,3.1,2.6,5.9,2.6c1.4,0,3-0.1,5-0.4
			l0.4,2.4c-1,0.4-2.8,0.6-5.3,0.6c-3.7,0-6.3-1-7.9-3.1c-1.6-2-2.4-5.3-2.4-9.7V23.7h-9.3v-2.5h9.3V7.6H190.5z"/>
		<path class="st0" d="M247.8,71.8c-0.6-2.1-0.9-5.2-0.9-9.2c-2,3.2-4.7,5.7-8.2,7.5s-7.4,2.7-11.7,2.7c-4.7,0-8.4-1.3-11.3-3.8
			s-4.3-5.8-4.3-9.9c0-4.6,2.1-8.4,6.3-11.1s9.8-4.2,16.7-4.3h12.5v-7.4c0-4.2-1.3-7.5-4-9.9s-6.5-3.5-11.4-3.5
			c-4.6,0-8.5,1.2-11.5,3.6s-4.6,5.3-4.6,8.8l-2.5-0.1c0-4.1,1.8-7.6,5.4-10.5s8-4.3,13.3-4.3c5.5,0,9.8,1.4,13,4.1s4.9,6.6,5,11.5
			V60c0,5.5,0.4,9.3,1.3,11.3v0.4H247.8z M227,70.2c4.7,0,8.8-1.1,12.2-3.2c3.4-2.1,6-5.1,7.7-8.9v-12h-11.7
			c-7.2,0-12.8,1.4-16.6,4.3c-3.1,2.3-4.7,5.2-4.7,8.7c0,3.1,1.2,5.7,3.7,7.8C220.1,69.1,223.2,70.2,227,70.2z"/>
		<path class="st0" d="M308.1,39h22.5v2.5h-22.5V65h-2.6V41.5h-21.6V39h21.6V15.4h2.6V39z"/>
		<path class="st0" d="M366.5,71.8v-68h18.8c5.3,0,10,1.2,14.3,3.7s7.6,6,10,10.5c2.4,4.5,3.7,9.5,3.7,15.1v8.8
			c0,5.7-1.2,10.8-3.6,15.3c-2.4,4.5-5.7,8.1-10,10.7s-9,3.8-14.3,3.9H366.5z M369,6.3v63h16.3c4.8,0,9.1-1.2,13-3.5
			c3.9-2.3,7-5.6,9.2-9.7s3.3-8.8,3.4-13.9v-8.7c0-5.1-1.1-9.7-3.2-13.8c-2.2-4.1-5.2-7.4-9.1-9.7c-3.9-2.4-8.2-3.6-12.9-3.6H369z"
			/>
		<path class="st0" d="M446,72.7c-4.1,0-7.8-1.1-11.2-3.3c-3.4-2.2-6.1-5.2-8-9c-1.9-3.8-2.9-8.1-2.9-12.8v-2.1
			c0-4.7,0.9-9,2.8-12.8s4.4-6.9,7.7-9.1c3.3-2.2,6.8-3.3,10.7-3.3c5.6,0,10.2,2,13.8,6c3.6,4,5.4,9.3,5.4,15.8v2.7h-37.9v2.8
			c0,4.1,0.9,7.9,2.6,11.4c1.7,3.5,4.1,6.2,7.1,8.2c3,2,6.3,3,9.9,3c3.4,0,6.3-0.6,8.7-1.7c2.4-1.1,4.5-2.9,6.3-5.2l1.8,1.3
			C459,70,453.4,72.7,446,72.7z M445,22.8c-4.9,0-9.1,1.8-12.5,5.5s-5.4,8.3-6,14h35.2v-0.6c0-3.4-0.7-6.6-2.2-9.6
			c-1.4-2.9-3.4-5.2-6-6.9S448.2,22.8,445,22.8z"/>
		<path class="st0" d="M498.3,23.1l-3.3-0.3c-4.3,0-7.9,1.4-10.8,4.2c-2.9,2.8-4.8,6.7-5.7,11.7v33.1H476V21.2h2.5v10.5
			c1.4-3.5,3.4-6.3,6.2-8.4s6.2-3.1,10.3-3.1c1.5,0,2.6,0.2,3.6,0.5L498.3,23.1z"/>
		<path class="st0" d="M525.3,72.7c-4.1,0-7.8-1.1-11.2-3.3c-3.4-2.2-6.1-5.2-8-9c-1.9-3.8-2.9-8.1-2.9-12.8v-2.1
			c0-4.7,0.9-9,2.8-12.8c1.9-3.9,4.4-6.9,7.7-9.1c3.3-2.2,6.8-3.3,10.7-3.3c5.6,0,10.2,2,13.8,6s5.4,9.3,5.4,15.8v2.7h-37.9v2.8
			c0,4.1,0.9,7.9,2.6,11.4c1.7,3.5,4.1,6.2,7.1,8.2c3,2,6.3,3,9.9,3c3.4,0,6.3-0.6,8.7-1.7s4.5-2.9,6.3-5.2l1.8,1.3
			C538.3,70,532.7,72.7,525.3,72.7z M524.4,22.8c-4.9,0-9.1,1.8-12.5,5.5s-5.4,8.3-6,14H541v-0.6c0-3.4-0.7-6.6-2.2-9.6
			c-1.4-2.9-3.4-5.2-6-6.9S527.5,22.8,524.4,22.8z"/>
		<path class="st0" d="M565.3,44.4L565.3,44.4l-7.4,6.4v20.9h-2.5V0h2.5v48.1l5.9-5.6l23-21.3h3.6l-23.2,21.5l24.7,29h-3.3
			L565.3,44.4z"/>
	</g>
</g>
</svg>
